<svg xmlns="http://www.w3.org/2000/svg" width="246" height="29" viewBox="0 0 246 29">
  <defs>
    <linearGradient id="gradient-backgrounds-a" x1="50%" x2="50%" y1="100%" y2="0%">
      <stop offset="0%" stop-color="#522DB8"/>
      <stop offset="100%" stop-color="#1C7CE0"/>
    </linearGradient>
  </defs>
  <path fill="url(#gradient-backgrounds-a)" fill-rule="evenodd" d="M79,77 L84.9526908,78.9897059 L84.9526908,92.5735294 L78.309613,92.5735294 L76.6419374,90.6931818 C75.516129,91.6818182 73.9240498,93 70.2430186,93 C67.7410677,93 65.4907836,92.4527016 63.4920987,91.3580882 C61.4934138,90.2634749 59.9117444,88.6357951 58.7470432,86.475 C57.5823419,84.3142049 57,81.6843292 57,78.5852941 C57,73.9793887 58.3012825,70.3970716 60.9038866,67.8382353 C63.5064907,65.279399 67.122762,64 71.752809,64 C75.2900499,64 78.1011078,64.5970529 80.1860668,65.7911765 C82.2710259,66.9853001 84,70 85.0389645,74 L79,77 Z M104.388688,88.5065508 L104.388688,92.5735294 L91.5534818,92.5735294 L91.5534818,64.4264706 L106.996481,64.4264706 C110.792544,64.4264706 113.661117,65.2154333 115.602286,66.7933824 C117.543455,68.3713314 118.514025,70.724004 118.514025,73.8514706 C118.514025,77.9740402 116.802946,80.7460713 113.380737,82.1676471 L120.110089,92.5735294 L107.196461,92.5735294 L104.388688,88.5065508 Z M138.494151,89.8363636 L133.209885,92.5735294 L123.202131,92.5735294 L132.433421,64.4264706 L144.511744,64.4264706 L153.786171,92.5735294 L143.519596,92.5735294 L138.494151,89.8363636 Z M171.99078,64.4264706 C176.41952,64.4264706 179.776973,65.6418996 182.063238,68.0727941 C184.349504,70.5036886 185.492619,73.9793892 185.492619,78.5 C185.492619,83.0206108 184.349504,86.4963114 182.063238,88.9272059 C179.776973,91.3581004 176.41952,92.5735294 171.99078,92.5735294 L158.014434,92.5735294 L158.014434,64.4264706 L171.99078,64.4264706 Z M203.806452,92.5735294 L191.403221,92.5735294 L191.403221,64.4264706 L203.806452,64.4264706 L203.806452,92.5735294 Z M233.749813,82 L233.749813,92.5735294 L209.593167,92.5735294 L209.593167,64.4264706 L233.232171,64.4264706 L233.232171,75.2161765 L227.955661,78.5 L233.749813,82 Z M268.288633,92.5735294 L255.418142,92.5735294 L249.04959,88.1886364 L249.135863,92.5735294 L240.422216,92.5735294 L240.422216,64.4264706 L253.292707,64.4264706 L259.661259,70.1295455 L259.574986,64.4264706 L268.288633,64.4264706 L268.288633,92.5735294 Z M303,88.2645722 L297,89 L295.113805,92.5735294 L283.062915,92.5735294 L281,89 L275.133583,88.2645722 L275.133583,64.4264706 L303,64.4264706 L303,88.2645722 Z" transform="translate(-57 -64)"/>
</svg>
